<?xml version="1.0" encoding="UTF-8"?>
<svg width="6694px" height="1753px" viewBox="0 0 6694 1753" version="1.1" xmlns="http://www.w3.org/2000/svg" xmlns:xlink="http://www.w3.org/1999/xlink">
    <!-- Generator: Sketch 63 (92445) - https://sketch.com -->
    <title>Color logo - no background</title>
    <desc>Created with Sketch.</desc>
    <g id="页面-1" stroke="none" stroke-width="1" fill="none" fill-rule="evenodd">
        <g id="Color-logo---no-background" transform="translate(-1.000000, 0.000000)" fill-rule="nonzero">
            <g id="SvgjsG4006" fill="#4E6EF2">
                <g id="编组" transform="translate(0.894480, 0.765966)">
                    <path d="M992.518345,260.24995 C859.367093,260.24995 735.243978,332.75872 659.801574,450.44971 L414.133127,295.978411 C422.838549,271.811673 427.35262,245.541248 427.35262,218.218979 C427.35262,98.0779635 337.40183,0 226.496241,0 C115.590652,0 25.319117,98.0779635 25.319117,218.218983 C25.319117,338.710614 115.590652,436.788577 226.496241,436.788577 C289.041869,436.788577 345.139112,405.613828 381.893153,356.574843 L627.5616,511.046141 C601.447298,569.893774 587.261632,634.342686 587.261632,700.544673 C587.261632,787.060914 610.152723,869.724674 652.709725,940.480369 L318.381348,1303.36199 C285.495946,1277.09157 244.873262,1262.03225 201.350083,1262.03225 C90.4444939,1262.03225 0.17295899,1360.10594 0.17295899,1480.25124 C0.17295899,1600.74287 90.4444939,1698.82083 201.350083,1698.82083 C312.255672,1698.82083 402.204495,1600.74287 402.204495,1480.25124 C402.204495,1432.61044 388.018829,1388.8264 363.838848,1353.09793 L693.009696,996.172472 C696.555622,1000.72618 700.101545,1005.2799 703.970184,1009.8336 L710.418573,988.818119 C740.078798,897.046939 819.389844,835.74928 908.372486,835.74928 L1076.98692,835.74928 C1165.32414,835.74928 1244.31247,896.345711 1273.65195,986.714433 L1282.67812,1007.38358 C1355.21806,926.468617 1398.09778,816.482592 1398.09778,700.544669 C1398.09778,457.804063 1215.94113,260.24995 992.518345,260.24995 Z M992.518345,784.957227 C908.372483,784.957227 840.023895,710.353325 840.023895,618.928483 C840.023895,527.507914 908.372483,453.250351 992.518345,453.250351 C1076.66421,453.250351 1145.33551,527.507914 1145.33551,618.928483 C1145.33551,710.353325 1076.66421,784.957227 992.518345,784.957227 Z" id="形状"></path>
                    <path d="M1637.31783,1532.79209 C1637.31783,1653.28372 1547.0463,1751.36168 1436.46342,1751.36168 C1325.55784,1751.36168 1235.2863,1653.28372 1235.2863,1532.79209 C1235.2863,1464.83703 1263.97838,1403.88999 1309.11513,1363.95843 L1166.615,1097.40169 C1112.77282,1125.07457 1053.12966,1140.83512 992.518348,1140.83512 C906.760884,1140.83512 825.192804,1111.76405 757.166929,1058.87259 L771.352595,1011.5824 C791.663937,948.18533 846.793032,905.803744 908.372486,905.803744 L1076.98692,905.803744 C1138.56638,905.803744 1193.37276,948.185327 1213.36139,1011.23606 C1213.6841,1012.28363 1214.32953,1013.68609 1214.65225,1014.73793 L1232.06112,1055.0201 C1228.83791,1057.47013 1225.29199,1059.57381 1222.06681,1062.37445 L1364.88966,1328.93119 C1387.13532,1319.47315 1411.3153,1314.5731 1436.46342,1314.5731 C1547.0463,1314.5731 1637.31783,1412.6468 1637.31783,1532.79209 Z" id="路径"></path>
                </g>
            </g>
            <g id="SvgjsG4007" transform="translate(2165.000000, 464.000000)" fill="#3B8BFB">
                <path d="M901.08089,693.91566 C900.234959,771.184839 900.104811,848.446327 901.01997,925.673201 C924.350319,923.060717 947.649479,921.600329 970.911068,923.987593 C976.172306,924.522413 980.010132,930.632258 979.655696,937.502681 C978.563327,958.569311 978.078743,979.689015 978.109224,1000.80718 C978.617343,1019.06934 979.125461,1037.3238 979.63358,1055.58519 C979.733265,1059.19977 979.802489,1063.03058 978.433214,1066.18542 C976.57101,1070.47597 972.770755,1072.14512 968.878701,1072.83778 C962.86287,1078.23866 954.878506,1078.91478 947.456631,1079.19861 C910.357887,1080.62581 873.227244,1081.01037 836.110778,1081.47019 C829.272658,1081.78717 822.534133,1081.9374 814.257714,1081.75413 C812.734777,1081.77065 811.211839,1081.78718 809.688689,1081.81272 C808.295864,1081.82924 806.911334,1081.84577 805.526909,1081.87131 C804.834662,1081.88032 804.134085,1081.89685 803.433473,1081.90586 C799.87955,1081.95544 796.318538,1082.01403 792.757527,1082.06361 C790.042552,1082.17177 787.334312,1082.23787 784.80329,1082.38811 C781.372497,1082.59693 778.380567,1082.19581 775.496527,1081.67 C771.503459,1082.52934 767.319705,1082.28746 762.904504,1079.44949 C762.71206,1079.43297 762.534828,1079.3909 762.342405,1079.37438 C759.841935,1079.21512 757.349829,1079.04838 754.849288,1078.88913 C729.478808,1081.9359 704.140228,1083.81388 678.851269,1081.21778 C673.590031,1080.68296 669.752205,1074.57312 670.106641,1067.7027 C671.19901,1046.63607 671.683594,1025.51636 671.653113,1004.3982 C671.144994,986.143733 670.636876,967.889269 670.128758,949.627882 C670.029073,946.013296 669.959848,942.182489 671.329124,939.027648 C673.191327,934.737095 676.991582,933.067949 680.883636,932.375291 C686.899467,926.983255 694.883831,926.30752 702.307124,926.023304 C719.13713,925.380298 735.98415,924.988202 752.831878,924.66218 C752.408221,897.334328 752.008099,869.999553 751.8004,842.670162 C751.307522,778.050345 751.738097,713.411297 751.761632,648.787634 L751.761632,635.816365 C747.900414,629.840128 743.184652,630.640857 738.938162,630.824309 C674.93069,633.561556 610.930306,630.230877 546.933466,630.322527 C538.118305,630.339052 529.234384,629.353537 520.502516,627.92634 C501.093638,624.745885 481.518176,626.414993 462.40348,628.309428 C436.641704,630.855915 410.978461,630.313481 385.285445,630.614081 C334.615373,631.206013 283.938212,630.980647 233.275229,631.163938 C227.960117,631.180463 222.645005,631.680758 218.02884,631.922592 C212.890945,635.495181 213.40594,640.503698 213.429687,645.228844 C213.559832,671.279838 212.35947,697.437749 214.205014,723.347981 C219.020372,790.813808 218.635456,858.360401 218.273932,925.906994 L224.849061,926.330665 C250.219541,923.283896 275.558121,921.405914 300.84708,924.002013 C306.108318,924.536833 309.946144,930.646678 309.591708,937.517101 C308.499339,958.583731 308.014755,979.703435 308.045236,1000.8216 C308.553355,1019.08376 309.061473,1037.33822 309.569592,1055.59961 C309.677585,1059.21419 309.738501,1063.045 308.369226,1066.19984 C306.507022,1070.49039 302.706767,1072.15954 298.814713,1072.8522 C292.798882,1078.25308 284.814518,1078.9292 277.391225,1079.21303 C256.49939,1080.01376 235.606846,1080.46447 214.705796,1080.80695 C212.51411,1081.99228 210.260114,1082.25972 207.967272,1082.25972 C177.20654,1082.29277 146.451479,1082.29277 115.690039,1082.37691 C115.374365,1082.39343 115.036531,1082.40245 114.7292,1082.41897 C114.322167,1082.44451 113.984319,1082.37841 113.592526,1082.38742 C103.269598,1082.41296 92.9459604,1082.41296 82.6233864,1082.4805 C78.3616562,1082.51212 74.4618045,1081.97728 70.9007929,1080.39086 C50.162074,1082.44461 29.446039,1083.37148 8.77182735,1081.2517 C3.5105896,1080.71688 -0.327235945,1074.60704 0.0271993657,1067.73662 C1.11956899,1046.66999 1.60415295,1025.55028 1.57367151,1004.43212 C1.06555305,986.177654 0.55743459,967.92319 0.0493161291,949.661803 C-0.050368802,946.047216 -0.111285599,942.216409 1.2496822,939.061569 C3.11188532,934.771016 6.91922942,933.101869 10.8109291,932.409212 C16.8267597,927.017176 24.8111239,926.341441 32.234417,926.057224 C42.5335983,925.656091 52.841286,925.48033 63.1411761,925.22192 C62.8878116,908.427383 61.9961728,891.625154 60.2725185,874.797541 C58.8104019,860.483263 60.1714477,845.859 59.5401134,831.41896 C56.0788399,752.330641 55.9167212,673.103868 60.2476017,594.215539 C64.3707477,519.053946 61.5088952,443.915428 64.3622412,368.826908 C65.0240428,351.541626 66.3628159,334.305572 67.3015023,317.102594 C69.1248594,283.573516 69.9321212,249.936751 65.9391239,216.196145 C63.9316023,199.192388 63.7543846,181.680963 64.8232198,164.402604 C46.1161241,166.029599 27.4373832,166.564495 8.77636412,164.653499 C3.51512637,164.11868 -0.322699173,158.008834 0.0317361377,151.138411 C1.12410576,130.071782 1.60868972,108.952078 1.57820828,87.8339121 C1.07008982,69.5794483 0.561971362,51.3249844 0.0538529011,33.0635978 C-0.04583203,29.4490109 -0.106748827,25.6182041 1.25421897,22.4633633 C3.11642209,18.1728105 6.92376619,16.5036639 10.8154659,15.8110065 C16.8312964,10.4189708 24.8156607,9.74323564 32.2389538,9.4590192 C69.3376978,8.03182196 106.468341,7.64726444 143.584807,7.18744148 C150.422927,6.87045746 157.169603,6.72023427 165.446377,6.90350195 C166.969314,6.88697663 168.492252,6.87045131 170.015402,6.8449126 C171.399897,6.82838728 172.792757,6.80284549 174.177182,6.78632325 C174.869429,6.77730909 175.570006,6.760783 176.270618,6.7517696 C179.824541,6.70219134 183.385553,6.64360198 186.946564,6.59402372 C189.661539,6.48585609 192.369779,6.41975558 194.900802,6.26951701 C203.662088,5.73469783 209.855136,8.79800485 217.363494,9.28167277 C219.863964,9.44092627 222.35607,9.60767171 224.856611,9.76691752 C250.22709,6.72014812 275.565671,4.84216593 300.85463,7.43826575 C306.115868,7.97308492 309.953693,14.0829306 309.599258,20.9533533 C308.506888,42.019983 308.022304,63.1396869 308.052786,84.2578525 C308.560904,102.512316 309.069023,120.76678 309.577141,139.028167 C309.685134,142.642754 309.746051,146.47356 308.376775,149.628401 C306.514572,153.918954 302.714317,155.588101 298.822262,156.280758 C292.806432,161.672794 284.822068,162.348529 277.398775,162.632745 C259.321156,163.325326 241.228651,163.759496 223.134728,164.093018 C223.818682,185.04273 224.218804,206.010134 223.842217,227.005229 C222.603075,296.432497 223.057213,365.898223 222.873049,435.348567 C222.857819,441.967848 223.550091,448.594821 223.896197,454.829122 C231.93479,460.922661 240.18888,458.61047 247.857442,458.636007 C315.42699,458.844828 382.996537,458.652533 450.551907,458.694597 C510.997305,458.727647 571.446247,458.636007 631.89519,459.227916 C647.779563,459.387169 663.649758,461.933626 679.527751,463.302326 C695.405744,464.671026 711.473714,463.176132 727.135502,468.201309 C731.989494,469.762308 737.620407,468.44319 746.073689,468.44319 C746.534739,455.7396 747.235316,445.279743 747.25885,434.8295 C747.42776,353.787434 747.451294,272.745368 747.550976,191.703302 C747.566205,182.179936 747.542669,172.64734 747.527438,163.115513 C724.596892,165.636463 701.706042,167.014163 678.844964,164.668973 C673.583726,164.134154 669.745901,158.024309 670.100336,151.153886 C671.192706,130.087256 671.67729,108.967552 671.646808,87.8493867 C671.13869,69.5949229 670.630571,51.340459 670.122453,33.0790724 C670.022768,29.4644855 669.953543,25.6336787 671.322819,22.4788379 C673.185022,18.1882851 676.985277,16.5191385 680.877332,15.8264811 C686.893162,10.4344454 694.877526,9.75871024 702.300819,9.47449381 C739.399563,8.04729657 776.530207,7.66273904 813.646672,7.20291608 C820.484793,6.88593207 827.223317,6.73570888 835.499736,6.91897656 C837.022673,6.90245124 838.545611,6.88592591 840.068761,6.8603872 C841.461586,6.84386188 842.846116,6.81832009 844.230541,6.80179785 C844.922788,6.79278369 845.623365,6.7762576 846.323977,6.76724421 C849.8779,6.71766594 853.438912,6.65907659 856.999923,6.60949832 C859.714898,6.5013307 862.423138,6.43523019 864.954161,6.28499161 C873.715447,5.75017243 879.908495,8.81347946 887.416853,9.29714737 C889.917323,9.45640088 892.409429,9.62314631 894.90997,9.78239212 C920.280449,6.73562273 945.61903,4.85764053 970.907989,7.45374035 C976.169227,7.98855953 980.007052,14.0984052 979.652617,20.9688279 C978.560247,42.0354576 978.075664,63.1551615 978.106145,84.2733271 C978.614263,102.527791 979.122382,120.782255 979.6305,139.043641 C979.730185,142.658228 979.79941,146.489035 978.430134,149.643876 C976.567931,153.934429 972.767676,155.603575 968.875622,156.296233 C962.859791,161.688268 954.875427,162.364004 947.452134,162.64822 C935.598045,163.107928 923.737576,163.324263 911.873917,163.60821 C911.681473,204.967662 911.43502,246.319423 910.958765,287.667337 C910.40496,335.630303 908.436178,383.574038 907.490545,431.525466 C906.567064,477.815438 906.99072,524.159255 905.128588,570.39923 C904.289569,591.308945 904.127592,612.277887 902.527033,633.192217 C900.988784,653.341969 901.304514,673.67479 901.081646,693.931461 L901.08089,693.91566 Z M2262.71502,96.7611649 C2263.22314,116.952454 2263.72849,137.139897 2264.22137,157.3658 C2264.32106,161.372521 2264.38197,165.604616 2263.02101,169.092901 C2261.15186,173.841892 2257.35146,175.686415 2253.45976,176.454453 C2247.44393,182.423383 2239.46665,183.165268 2232.03627,183.48256 C2217.55972,184.100029 2203.08316,184.433512 2188.60731,184.776072 C2188.39964,199.566479 2188.03827,214.349965 2187.06906,229.081529 C2182.55427,297.451157 2184.06189,365.843862 2183.93869,434.240412 C2183.81547,501.767775 2183.893,569.295138 2184.4551,636.814809 C2184.60879,655.010814 2184.27789,673.157591 2183.93174,691.327444 C2183.60084,708.688107 2183.71577,726.058 2183.71577,743.417125 C2183.71577,761.746969 2183.57732,780.084506 2183.9539,798.406659 C2184.36094,818.097973 2180.36808,836.143217 2171.77586,853.78848 C2160.54451,876.842702 2147.99892,898.636218 2133.84419,919.804381 C2109.89146,955.604114 2088.05824,993.092992 2065.48071,1029.96806 C2056.67228,1044.35733 2048.24948,1059.02351 2038.01906,1076.31956 C2007.82685,1076.31956 1978.54127,1076.26097 1949.26492,1076.32708 C1871.03396,1076.50285 1792.80299,1076.37815 1714.57203,1077.1293 C1691.5791,1077.35465 1668.62658,1081.02795 1645.62728,1081.50408 C1600.30209,1082.44754 1554.94855,1082.26428 1509.60918,1082.53918 C1505.23261,1082.56473 1500.8564,1082.53918 1498.44021,1082.53918 C1495.05507,1079.90116 1493.23994,1079.10044 1492.25567,1077.63097 C1465.19383,1037.1984 1434.15664,999.946428 1412.08595,955.490978 C1400.76351,932.687513 1387.06424,911.135523 1373.1725,890.001973 C1361.8653,872.790534 1356.14968,854.771443 1356.66432,833.520207 C1357.28734,807.503058 1356.41095,781.438219 1355.91114,755.393378 C1355.63424,741.004104 1356.48019,726.61483 1352.7337,712.334012 C1350.84102,705.130529 1351.78669,697.001324 1351.76315,689.28902 C1351.61639,645.875826 1351.41702,602.462631 1351.60116,559.060974 C1351.65516,546.624678 1352.00961,534.312991 1354.13211,521.76747 C1356.50102,507.803559 1356.00807,492.736627 1354.05458,478.588879 C1351.92386,463.180425 1351.58601,447.881197 1351.53199,432.506588 C1351.24679,349.906908 1351.0931,267.299536 1350.95465,184.688319 C1330.03872,187.000356 1309.14546,188.061072 1288.29403,185.699383 C1283.0328,185.098452 1279.19497,178.337831 1279.54941,170.751291 C1280.64178,147.454005 1281.12636,124.099798 1281.09588,100.754822 C1280.58776,80.5635323 1280.07964,60.379935 1279.57152,40.1886457 C1279.47184,36.1819248 1279.41092,31.9498305 1280.77189,28.4615449 C1282.63409,23.7125537 1286.43435,21.8680314 1290.3264,21.0999932 C1296.34223,15.1310635 1304.3266,14.3891778 1311.74989,14.0718861 C1328.42678,13.3627681 1345.10225,12.9376357 1361.77843,12.5785769 C1363.95495,11.8274224 1366.23936,11.8439216 1368.49321,11.8439216 C1378.95472,11.8604469 1389.40915,11.8859887 1399.86357,11.9115259 C1407.61011,11.8033583 1415.35665,11.6621385 1423.10319,11.5539747 C1429.94131,11.2039308 1436.68798,11.0371546 1444.96476,11.2369907 C1446.48769,11.2114504 1448.01063,11.1949236 1449.53378,11.1693864 C1450.92661,11.1438461 1452.31114,11.1273193 1453.69556,11.1017821 C1454.39614,11.092768 1455.08838,11.0762419 1455.789,11.0672285 C1459.34292,11.0086391 1462.90393,10.9500459 1466.46494,10.8914527 C1469.17992,10.7742702 1471.88816,10.6991547 1474.41918,10.5323939 C1479.37277,10.1988723 1498.88798,11.1333251 1502.90302,12.1098528 C1508.56441,12.1263781 1514.23396,12.1429034 1519.90315,12.1519199 C1522.82583,12.1519199 1525.69463,12.2856286 1528.42484,13.3868192 C1550.88612,10.6991086 1573.3318,9.28856434 1595.7392,11.825821 C1601.00859,12.4177527 1604.83968,19.1781424 1604.48524,26.7650674 C1603.39287,50.0623539 1602.90829,73.4165605 1602.93877,96.7615368 C1603.44689,116.952826 1603.95501,137.136423 1604.46313,157.327713 C1604.57112,161.334434 1604.63204,165.566528 1603.26276,169.054813 C1601.40056,173.803805 1597.6003,175.648327 1593.70825,176.416365 C1587.69242,182.385295 1579.71514,183.127181 1572.28476,183.444472 C1558.79956,184.019866 1545.30798,184.329351 1531.81534,184.655334 C1531.26982,251.305819 1530.76174,317.948611 1530.6385,384.599095 C1530.59974,402.736642 1527.70747,420.649585 1529.83826,439.061733 C1531.93028,457.123899 1530.53742,475.653733 1530.72988,493.974348 C1530.92925,512.304192 1531.14524,530.624807 1531.43045,548.95619 C1531.71567,567.287573 1531.82367,585.615879 1532.47714,603.918802 C1533.56951,634.452646 1535.38464,664.969569 1536.23061,695.510336 C1536.89932,719.598352 1536.57673,743.723289 1536.66118,767.837457 C1536.69994,778.404616 1536.66948,788.979467 1536.66948,798.469758 C1561.00076,833.767978 1583.14658,868.600836 1601.15544,907.529642 C1619.60167,909.407547 1638.0238,913.038595 1656.38001,912.679767 C1675.65704,912.304185 1695.05599,914.949806 1714.38689,910.400805 C1723.76419,908.196916 1733.87233,909.591038 1743.65049,909.506927 C1820.98827,908.847421 1875.24169,908.220914 1954.21342,907.570409 C1959.09789,905.934338 1962.98995,900.183474 1965.5277,894.25685 C1976.44998,868.758136 1992.05789,846.447723 2005.68877,822.791224 C2011.80419,812.181759 2017.61233,801.355382 2023.72811,790.746686 C2030.05938,779.761856 2032.66661,767.841688 2032.42843,754.962337 C2031.65172,712.526016 2031.28204,670.074311 2030.16614,627.645682 C2029.79646,613.463705 2027.7737,599.516332 2029.45865,585.08629 C2030.64381,574.886805 2027.40548,564.168884 2027.07458,553.650953 C2026.374,531.481302 2026.45155,509.276268 2025.88251,487.100464 C2025.46714,470.798209 2025.82159,454.548259 2022.50573,438.279849 C2020.24486,427.170025 2021.1683,415.234858 2021.1683,403.664672 C2021.17661,352.532636 2020.8914,301.396753 2021.66813,250.280101 C2022.00595,228.161217 2023.52197,206.059255 2024.69189,183.948831 C2001.68336,186.753613 1978.70036,188.298227 1955.76131,185.694589 C1950.50007,185.093658 1946.66224,178.333038 1947.01668,170.746497 C1948.10905,147.449211 1948.59363,124.095004 1948.56315,100.750028 C1948.05503,80.5587387 1947.54692,60.3751414 1947.0388,40.1838521 C1946.93911,36.1771312 1946.86989,31.9450369 1948.23916,28.4567513 C1950.10137,23.7077601 1953.90162,21.8632378 1957.79368,21.0951996 C1963.80951,15.1278083 1971.79387,14.3859226 1979.21716,14.0686309 C1997.90158,13.2679021 2016.603,12.7676196 2035.29592,12.4010227 C2037.6953,10.7154154 2040.09462,10.4405062 2042.47182,10.4558845 C2067.4269,10.6492649 2100.07464,10.9241741 2125.0198,11.1585469 C2126.28939,11.1330067 2127.56592,11.1164798 2128.84238,11.0909427 C2129.53463,11.0819285 2130.23521,11.0654024 2130.93582,11.056389 C2134.48974,10.9977997 2138.05076,10.9392065 2141.61177,10.8806133 C2144.32674,10.7634307 2147.04172,10.6883153 2149.56459,10.5215545 C2153.35669,10.2631521 2156.62565,10.805494 2159.76417,11.4815445 C2166.78766,11.5566599 2173.81151,11.598727 2180.83464,11.6828574 C2183.04986,11.7083977 2185.35794,12.593273 2188.09631,13.3864638 C2210.60437,10.6987532 2233.08124,9.27167135 2255.52054,11.8180814 C2260.78178,12.410013 2264.6196,19.1704028 2264.26517,26.7573278 C2263.1728,50.0546143 2262.68822,73.4088209 2262.7187,96.7537972 L2262.71502,96.7611649 Z M3252.75918,470.703842 C3305.29712,517.520711 3359.96877,563.426088 3411.43277,614.658119 C3411.74845,626.493676 3412.33272,638.004634 3412.30984,649.522514 C3412.15547,723.811075 3411.58642,798.088098 3411.83286,872.357428 C3411.88686,887.95818 3407.50202,900.102183 3397.61008,911.178547 C3371.01751,940.960122 3348.49244,974.483046 3324.40856,1006.57758 C3312.64698,1022.25371 3299.8547,1037.02681 3288.18527,1052.78679 C3277.79322,1066.81839 3264.56995,1072.11812 3248.48497,1071.80121 C3231.60109,1071.46769 3214.70161,1071.9845 3197.80781,1071.8598 C3159.57842,1071.57586 3121.33839,1071.49173 3083.12317,1070.57379 C3063.65475,1070.10658 3044.23808,1067.16796 3024.76895,1066.81798 C2976.76068,1065.95864 2928.74533,1065.70027 2880.74061,1065.65819 C2827.39455,1065.61613 2774.05558,1066.08336 2720.70598,1066.3087 C2710.95192,1066.35077 2701.19786,1066.31771 2690.30677,1066.31771 C2649.56798,1014.41649 2610.47731,964.626689 2570.67068,913.921554 C2565.00113,890.64119 2562.32479,866.44318 2567.27859,841.075229 C2569.99357,827.160546 2568.45542,812.245914 2568.70881,797.781259 C2569.14771,772.808672 2569.48552,747.833778 2569.86211,722.861961 C2573.47026,721.343114 2575.83895,719.48167 2578.20799,719.472747 C2623.53318,719.305986 2668.84774,719.348053 2713.44633,719.348053 C2718.83056,722.611119 2718.56898,727.711477 2718.61471,732.377781 C2718.82238,753.604402 2718.83069,774.821794 2718.89161,796.047646 C2718.91514,805.62947 2718.89161,815.220525 2718.89161,823.124742 C2734.38468,844.566737 2748.59896,864.234207 2762.29221,883.190943 C2767.70692,887.205356 2773.05251,887.446882 2778.39775,887.221509 C2796.12093,886.479354 2813.94407,887.272587 2831.48861,883.549848 C2833.21925,883.183282 2835.08153,882.223299 2836.6818,882.582358 C2856.98102,887.105976 2877.23629,879.794037 2897.44974,882.239822 C2951.44087,888.784107 3005.78643,883.525834 3059.76693,887.840308 C3105.8896,891.529968 3152.00518,891.630732 3198.15974,892.156629 C3200.79036,892.182169 3203.41389,891.923764 3205.79818,891.806585 C3217.67459,879.736809 3252.50566,835.255591 3261.72098,820.179429 L3261.72098,686.413099 C3252.65949,673.09954 3238.89676,662.615838 3225.83795,651.130263 C3213.45327,640.236967 3202.17727,627.866821 3190.10733,615.839736 C3175.04524,615.839736 3159.79176,614.053518 3145.02315,616.198794 C3109.57608,621.357765 3074.06875,618.578521 3038.60041,619.446784 C3022.61679,619.83888 3006.54811,619.998141 2990.60987,618.796279 C2910.7485,612.786967 2830.80207,615.657976 2750.884,615.023854 C2749.13819,615.007328 2747.40741,614.331273 2744.31454,613.680768 C2723.32205,596.62009 2701.45977,578.657919 2680.40631,559.402736 C2646.52938,528.427376 2613.10613,496.775126 2576.00739,469.230361 C2571.91473,453.597304 2570.18402,437.536575 2570.24498,421.067406 C2570.3599,388.273676 2569.96808,355.478407 2569.8753,322.683907 C2569.81438,300.531178 2571.14489,278.493828 2573.55257,256.468016 C2575.94501,234.539892 2573.04445,212.127945 2578.59087,190.386734 C2579.73725,185.896191 2578.77501,180.788372 2578.89824,175.972076 C2579.37453,157.674538 2579.89785,139.378538 2580.45165,119.505694 C2598.15074,96.4853165 2616.23544,72.7734356 2634.53494,49.2592371 C2642.55829,38.9501417 2651.29689,29.3002438 2659.20505,18.8930764 C2664.71262,11.6399807 2671.39692,8.08362166 2679.85162,7.81632745 C2686.95982,7.59098497 2694.0588,7.21539622 2701.16736,7.03209777 C2734.85289,6.15621888 2768.22298,0.22936398 2802.08218,1.06470646 C2852.73453,2.31614334 2903.57473,-0.756124774 2954.06404,2.73231465 C3043.7858,8.93392492 3133.43666,5.98784275 3223.13715,5.85415719 C3232.88271,5.83763187 3242.62117,5.85415719 3250.42158,5.85415719 C3279.87516,25.8362262 3301.8147,51.1595643 3323.89957,76.1852251 C3343.5523,98.454871 3362.36997,121.598319 3381.91354,143.977959 C3391.62188,155.087784 3397.0139,167.281399 3395.50684,182.956763 C3393.94506,199.200559 3395.49161,215.552042 3392.70737,231.919678 C3390.81468,243.003734 3391.93066,255.04005 3393.46193,266.367171 C3395.41543,280.781828 3395.34625,294.981112 3394.66229,308.218906 C3390.72345,313.828623 3386.08531,313.227884 3381.75447,313.202116 C3348.86287,313.009818 3315.97127,312.659759 3283.07968,312.492998 C3274.95673,312.450931 3267.13434,311.199486 3259.19499,306.617525 C3255.66453,302.568883 3256.36504,296.566878 3256.31102,290.890626 C3256.17257,276.450201 3256.26533,262.010544 3256.26533,246.969765 C3240.77225,225.533923 3218.01113,212.713031 3202.618,193.18017 C3190.27231,189.373285 3179.46487,185.408639 3167.55726,189.908181 C3162.7653,191.711013 3156.98091,190.450538 3151.6502,190.52565 C3092.98053,191.368454 3034.31085,192.136184 2975.63763,193.079675 C2964.13798,193.262958 2952.50009,192.152722 2941.26875,196.10983 C2917.43084,192.971527 2893.64682,197.211044 2869.79332,196.743798 C2824.48586,195.858919 2779.14649,196.485396 2734.89524,196.485396 C2722.45669,206.167984 2718.69471,218.119689 2718.73441,232.528193 C2718.79533,253.745584 2718.218,274.972206 2717.73341,296.190366 C2717.38729,311.557668 2717.48005,326.7919 2714.98796,342.207276 C2712.72709,356.196955 2714.51167,370.970441 2714.51167,384.466683 C2728.20457,402.662688 2741.81169,413.906737 2800.29565,455.6554 C2828.42647,456.79115 2857.78151,455.889757 2886.60419,459.696735 C2918.49628,463.912291 2950.44862,462.43552 2982.22729,465.19838 C3069.18799,472.768768 3156.28338,467.893475 3243.29016,470.214666 C3245.95112,470.289781 3248.61236,470.482083 3252.74366,470.690911 L3252.75918,470.703842 Z M4527.344,901.520573 C4530.86751,921.302652 4530.75409,970.344024 4527.64582,1018.57236 C4528.48484,1033.16316 4528.61499,1047.73704 4527.20001,1062.30092 C4526.95356,1064.82187 4525.46101,1067.0003 4523.25266,1068.5283 C4523.17513,1069.19535 4523.1059,1069.88793 4523.02838,1070.54743 C4511.52022,1083.25102 4495.92116,1084.20213 4481.36096,1080.87153 C4459.18324,1075.79678 4437.13098,1078.00059 4415.0213,1077.7663 C4392.89178,1077.52442 4370.71335,1075.65394 4348.66038,1080.88814 C4340.13728,1082.90881 4330.95279,1081.84813 4322.06781,1081.85713 C4291.85149,1081.88267 4261.59051,1082.74201 4231.42098,1081.34031 C4211.10616,1080.38936 4190.88067,1076.91746 4170.42975,1077.15168 C4147.32199,1077.41909 4124.20784,1077.51073 4101.09866,1077.19374 C4077.1842,1076.86022 4053.13647,1078.65552 4029.5169,1072.33668 C4025.29416,1071.20993 4020.66311,1071.8274 4016.21707,1071.81086 C3995.77041,1071.71922 3975.32233,1071.63508 3954.8785,1071.65161 C3935.46962,1071.66813 3915.77011,1070.95903 3896.72984,1073.37183 C3864.75978,1077.42816 3833.03782,1075.95877 3802.89664,1076.15861 C3801.05797,1075.09797 3799.65823,1073.93811 3798.51192,1072.71078 C3796.97367,1072.79491 3795.43556,1072.8535 3793.99712,1072.98722 C3787.76686,1073.54607 3783.35839,1070.29058 3778.01351,1069.77369 C3776.23722,1069.59791 3774.46065,1069.43115 3772.68457,1069.2554 C3754.63105,1072.50186 3736.59951,1074.49706 3718.60129,1071.7342 C3714.85491,1071.15881 3712.12434,1064.64764 3712.37811,1057.32685 C3713.15482,1034.8726 3713.50096,1012.35989 3713.47743,989.861025 C3713.11608,970.403545 3712.7547,950.939911 3712.39335,931.4832 C3712.31582,927.626856 3712.27706,923.544754 3713.24619,920.181078 C3714.5698,915.599001 3717.2779,913.82909 3720.0471,913.087205 C3724.33222,907.336341 3730.00886,906.610608 3735.29349,906.310239 C3754.63999,905.192526 3774.00137,904.716319 3793.35354,904.324185 C3793.17632,834.896918 3792.96033,765.473497 3793.2677,696.057767 C3793.35215,676.894118 3791.16051,657.947382 3790.98329,638.806809 C3790.39904,576.340729 3788.05225,513.886187 3787.75183,451.431645 C3787.42093,382.962021 3787.3974,314.434709 3789.70534,246.026621 C3790.49729,222.589341 3791.26712,199.032837 3792.82054,175.595558 C3788.36671,174.936053 3784.61324,172.891386 3780.32811,172.482792 C3778.48945,172.307016 3776.64411,172.13124 3774.8053,171.955472 C3756.14357,175.277151 3737.47618,177.32174 3718.82933,174.492883 C3714.94437,173.908489 3712.12129,167.247094 3712.38286,159.775933 C3713.18311,136.972467 3713.52925,114.293611 3713.50572,91.7909002 C3713.12913,72.4687979 3712.75945,53.2774582 3712.39811,34.2053433 C3712.32057,30.4404563 3712.27488,26.4591956 3713.25928,23.1874375 C3714.58979,18.7392003 3717.32004,17.0115952 3720.11264,16.2931699 C3724.413,10.7180665 3730.12827,10.0165634 3735.45118,9.72503963 C3760.95067,8.31434156 3786.45797,7.89667032 3811.96668,7.44607766 C3813.24321,6.85414598 3814.58198,6.32836481 3815.97498,6.16160399 C3837.13619,3.64973069 3858.61355,7.0299448 3879.6741,2.28103049 C3901.65051,7.42192503 3923.95016,4.67567894 3946.08819,5.16842331 C3994.97191,6.26213738 4043.87334,6.42136012 4092.7677,7.2310885 C4107.7915,7.47296861 4122.85358,6.6466949 4137.77744,10.7450651 C4144.47697,12.5898951 4151.92295,11.3459963 4159.03079,11.3549959 C4226.58262,11.4466374 4294.13799,11.3219452 4361.68273,11.6314281 C4370.02862,11.6734952 4378.3738,11.7981889 4386.72004,11.8733082 C4388.92831,10.4881473 4391.75125,9.71141724 4394.74339,9.87817806 C4414.15794,10.946355 4433.6214,11.4135622 4453.08344,11.388025 C4469.90636,10.8877425 4486.72928,10.3949981 4503.55858,9.90221531 C4506.8897,9.81057378 4510.42009,9.74446942 4513.32752,11.0800405 C4515.05816,11.8807694 4516.26551,13.0736323 4517.19583,14.4423325 C4525.15007,16.5786862 4528.05714,21.8623428 4528.29532,33.7398206 C4529.11081,74.2377779 4529.49569,114.747273 4529.63417,155.252922 C4529.65771,160.903022 4530.30426,167.029636 4527.69725,172.572049 C4527.70556,173.623688 4527.72079,174.666251 4527.73602,175.710352 C4527.75125,177.062438 4527.77479,178.414523 4527.79001,179.766686 C4527.79832,180.451728 4527.81355,181.127809 4527.82186,181.81289 C4527.86755,185.284715 4527.92154,188.756771 4527.96723,192.228519 C4528.06692,194.874078 4528.12783,197.528636 4528.26629,199.991204 C4528.75917,208.530389 4525.93609,214.574315 4525.49035,221.902407 C4525.34359,224.339207 4525.18992,226.776007 4525.04316,229.212807 C4527.851,253.96079 4529.58171,278.675697 4527.1892,303.347529 C4526.69632,308.481117 4521.06562,312.229389 4514.73399,311.879407 C4495.31944,310.81123 4475.85598,310.344023 4456.39393,310.36956 C4439.57102,310.862304 4422.7481,311.362587 4405.9188,311.855369 C4402.58768,311.947011 4399.05729,312.013115 4396.14986,310.677544 C4392.19577,308.858251 4390.65753,305.152054 4390.01919,301.354168 C4385.05,295.486003 4384.42726,287.697934 4384.16533,280.452146 C4383.01895,249.076805 4382.62708,217.682235 4382.25748,186.291511 C4369.63497,186.399678 4357.01176,186.449256 4344.40379,186.866905 C4327.61064,187.418261 4310.8572,189.922597 4294.08106,189.955672 C4265.84249,190.00525 4237.59825,188.812422 4209.35685,188.061306 C4207.61784,188.011728 4205.80966,186.701682 4204.17181,186.97663 C4182.99359,190.556757 4161.90895,185.523857 4140.73144,186.366699 C4119.4242,187.218502 4098.0716,186.55149 4076.73814,186.894019 C4070.58408,186.994675 4064.45341,188.56455 4058.2834,188.956684 C4051.23758,189.407392 4043.94579,190.55968 4037.1222,189.224101 C4005.35345,183.022491 3973.36637,186.444857 3943.13659,184.54126 C3937.23736,189.34871 3937.58329,194.515373 3938.60655,198.980147 C3942.51384,216.040825 3942.32103,233.401488 3942.37526,250.723691 C3942.5594,311.489857 3942.52894,372.263715 3942.6217,433.022189 C3942.63001,435.885583 3943.08414,438.749207 3943.2918,441.14524 C3946.6147,446.08653 3951.18366,445.785775 3955.56838,445.861156 C3968.90684,446.086499 3982.2531,445.877682 3995.56995,446.453088 C4006.16295,446.903796 4016.97926,445.676396 4027.19408,450.234436 C4028.78635,450.943554 4030.67889,451.002128 4032.44823,451.093777 C4064.54022,452.821536 4096.6152,454.748977 4128.71641,456.176213 C4127.70846,441.843859 4127.48559,427.520735 4128.985,413.224533 C4129.47787,408.49208 4135.10857,405.044177 4141.44021,405.361468 C4160.85476,406.337996 4180.31822,406.772166 4199.78026,406.746629 C4216.60318,406.286922 4233.42609,405.836214 4250.25539,405.376506 C4253.58652,405.284865 4257.11691,405.226275 4260.02434,406.453682 C4263.97842,408.131752 4265.51667,411.544964 4266.15501,415.04248 C4271.12419,420.450669 4271.74693,427.621461 4272.00886,434.29074 C4273.32413,467.619828 4273.67853,500.98353 4274.1023,534.328002 C4274.39442,540.471153 4274.52457,546.531232 4274.36258,553.96855 C4274.37781,555.337173 4274.39304,556.705796 4274.41657,558.074496 C4274.4318,559.325933 4274.45534,560.569909 4274.47057,561.813846 C4274.47888,562.447814 4274.49411,563.074321 4274.50241,563.700828 C4274.5481,566.905282 4274.6021,570.102043 4274.64779,573.29919 C4274.74747,575.73599 4274.80839,578.17279 4274.94685,580.442676 C4275.43972,588.313433 4272.61665,593.881229 4272.17091,600.624735 C4272.02414,602.861699 4271.87047,605.107585 4271.72372,607.353626 C4274.53155,630.141707 4276.26226,652.912866 4273.86975,675.630951 C4273.37687,680.363405 4267.74617,683.811308 4261.41454,683.494016 C4241.99999,682.517489 4222.53653,682.083318 4203.07449,682.108855 C4186.25157,682.568563 4169.42865,683.019271 4152.59936,683.478979 C4149.26823,683.57062 4145.73784,683.629209 4142.83041,682.401802 C4138.87633,680.723733 4137.33808,677.31052 4136.69974,673.813005 C4131.72241,668.404816 4131.09931,661.234024 4130.83774,654.564745 C4130.66883,650.174966 4130.62313,645.775957 4130.47639,641.386179 C4118.52271,641.787312 4106.56902,640.744673 4094.46931,639.55181 C4046.86156,634.843586 3999.21482,627.965856 3951.19238,632.782151 C3950.33812,632.866281 3949.5227,633.434157 3948.79994,633.734642 C3943.16903,638.792848 3943.75349,645.85403 3943.65354,652.49831 C3943.27695,677.581661 3942.87683,702.653473 3942.9156,727.736823 C3942.96129,758.612189 3943.40019,789.479863 3943.75462,820.347536 C3944.03983,845.304739 3949.68574,869.810426 3947.2865,892.420824 C3952.28616,899.390088 3956.9477,898.263222 3961.22431,898.230531 C3988.77812,898.038233 4016.33901,897.270541 4043.88572,897.6296 C4066.00815,897.921047 4088.02355,898.630165 4110.20056,901.576324 C4137.38575,905.181988 4165.20892,904.496792 4192.63158,900.707983 C4212.10001,898.01135 4231.27921,897.652291 4250.82986,901.215765 C4264.73046,903.753176 4279.16909,903.252893 4293.36919,903.295045 C4320.93008,903.379175 4348.48388,902.945001 4376.04477,902.611464 C4377.94426,902.585924 4379.83687,902.461233 4381.73629,902.419166 C4381.72798,902.093167 4381.72798,901.76716 4381.71968,901.441138 C4381.71137,900.765096 4381.69614,900.080015 4381.68783,899.40401 C4381.64214,895.948646 4381.58815,892.484359 4381.54246,889.019919 C4381.44277,886.381898 4381.38186,883.736339 4381.2434,881.283001 C4380.75052,872.7692 4383.5736,866.74335 4384.01934,859.441026 C4384.1661,857.011764 4384.31977,854.582425 4384.46653,852.153317 C4381.65869,827.480715 4379.92798,802.840419 4382.32049,778.24166 C4382.81337,773.124611 4388.44407,769.392876 4394.7757,769.735551 C4414.19025,770.79619 4433.65371,771.263397 4453.11576,771.23786 C4469.94576,770.745115 4486.76868,770.252332 4503.59798,769.75955 C4506.9291,769.658893 4510.45949,769.600296 4513.36692,770.926875 C4517.321,772.73863 4518.85925,776.435828 4519.49759,780.224868 C4524.46677,786.076496 4525.08952,793.838797 4525.35144,801.059202 C4526.57396,834.539051 4526.95051,868.032747 4527.34238,901.523365 L4527.344,901.520573 Z" id="形状"></path>
            </g>
        </g>
    </g>
</svg>